<svg xmlns="http://www.w3.org/2000/svg" version="1.1" xmlns:xlink="http://www.w3.org/1999/xlink" xmlns:svgjs="http://svgjs.dev/svgjs" width="2000" height="1500" viewBox="0 0 2000 1500"><rect width="2000" height="1500" fill="#040000"></rect><g transform="matrix(0.75,0,0,0.75,249.090909090909,487.4717045091785)"><svg viewBox="0 0 396 139" data-background-color="#040000" preserveAspectRatio="xMidYMid meet" height="702" width="2000" xmlns="http://www.w3.org/2000/svg" xmlns:xlink="http://www.w3.org/1999/xlink"><g id="tight-bounds" transform="matrix(1,0,0,1,0.2400000000000091,-0.19053547345833977)"><svg viewBox="0 0 395.52 139.38107094691665" height="139.38107094691665" width="395.52"><g><svg viewBox="0 0 693.6199503304122 244.43135999999998" height="139.38107094691665" width="395.52"><g transform="matrix(1,0,0,1,0,8.54764443007278)"><svg viewBox="0 0 395.52 227.33607113985443" height="227.33607113985443" width="395.52"><g id="textblocktransform"><svg viewBox="0 0 395.52 227.33607113985443" height="227.33607113985443" width="395.52" id="textblock"><g><svg viewBox="0 0 395.52 227.33607113985443" height="227.33607113985443" width="395.52"><g transform="matrix(1,0,0,1,0,0)"><svg width="395.52" viewBox="3.85 -35.25 61.85 35.55" height="227.33607113985443" data-palette-color="#cfe6cf"><path d="M27.15-24.65Q27.15-20.3 24.18-17.43 21.2-14.55 15.1-14.55L15.1-14.55 8.4-14.55 8.4 0 3.85 0 3.85-34.85 15.1-34.85Q21-34.85 24.08-32 27.15-29.15 27.15-24.65L27.15-24.65ZM15.1-18.3Q18.9-18.3 20.7-19.95 22.5-21.6 22.5-24.65L22.5-24.65Q22.5-31.1 15.1-31.1L15.1-31.1 8.4-31.1 8.4-18.3 15.1-18.3ZM64.65-24.75L59.2-24.75Q57.75-27.8 55-29.48 52.25-31.15 48.6-31.15L48.6-31.15Q44.95-31.15 42.02-29.48 39.1-27.8 37.42-24.68 35.75-21.55 35.75-17.45L35.75-17.45Q35.75-13.35 37.42-10.25 39.1-7.15 42.02-5.48 44.95-3.8 48.6-3.8L48.6-3.8Q53.7-3.8 57-6.85 60.3-9.9 60.85-15.1L60.85-15.1 46.95-15.1 46.95-18.8 65.7-18.8 65.7-15.3Q65.3-11 63-7.43 60.7-3.85 56.95-1.78 53.2 0.3 48.6 0.3L48.6 0.3Q43.75 0.3 39.75-1.98 35.75-4.25 33.42-8.3 31.1-12.35 31.1-17.45L31.1-17.45Q31.1-22.55 33.42-26.63 35.75-30.7 39.75-32.98 43.75-35.25 48.6-35.25L48.6-35.25Q54.15-35.25 58.42-32.5 62.7-29.75 64.65-24.75L64.65-24.75Z" opacity="1" transform="matrix(1,0,0,1,0,0)" fill="#cfe6cf" class="undefined-text-0" data-fill-palette-color="primary" id="text-0"></path></svg></g></svg></g></svg></g></svg></g><g transform="matrix(1,0,0,1,449.18859033041224,0)"><svg viewBox="0 0 244.43135999999998 244.43135999999998" height="244.43135999999998" width="244.43135999999998"><g data-palette-color="#ee7ddc"><rect width="66.8112384" height="244.43135999999998" fill="#ee7ddc" stroke="transparent" data-fill-palette-color="accent" x="0" fill-opacity="1"></rect><rect width="66.8112384" height="244.43135999999998" fill="#ee7ddc" stroke="transparent" data-fill-palette-color="accent" x="81.47711999999999" fill-opacity="0.75"></rect><rect width="66.8112384" height="244.43135999999998" fill="#ee7ddc" stroke="transparent" data-fill-palette-color="accent" x="162.95423999999997" fill-opacity="0.5"></rect></g></svg></g></svg></g><defs></defs></svg><rect width="395.52" height="139.38107094691665" fill="none" stroke="none" visibility="hidden"></rect></g></svg></g></svg>